<?xml version="1.0" encoding="utf-8" standalone="no"?>
<!DOCTYPE svg PUBLIC "-//W3C//DTD SVG 1.1//EN"
  "http://www.w3.org/Graphics/SVG/1.1/DTD/svg11.dtd">
<!-- Created with matplotlib (https://matplotlib.org/) -->
<svg height="732.24pt" version="1.1" viewBox="0 0 1382.4 732.24" width="1382.4pt" xmlns="http://www.w3.org/2000/svg" xmlns:xlink="http://www.w3.org/1999/xlink">
 <metadata>
  <rdf:RDF xmlns:cc="http://creativecommons.org/ns#" xmlns:dc="http://purl.org/dc/elements/1.1/" xmlns:rdf="http://www.w3.org/1999/02/22-rdf-syntax-ns#">
   <cc:Work>
    <dc:type rdf:resource="http://purl.org/dc/dcmitype/StillImage"/>
    <dc:date>2021-10-15T16:18:01.078917</dc:date>
    <dc:format>image/svg+xml</dc:format>
    <dc:creator>
     <cc:Agent>
      <dc:title>Matplotlib v3.3.4, https://matplotlib.org/</dc:title>
     </cc:Agent>
    </dc:creator>
   </cc:Work>
  </rdf:RDF>
 </metadata>
 <defs>
  <style type="text/css">*{stroke-linecap:butt;stroke-linejoin:round;}</style>
 </defs>
 <g id="figure_1">
  <g id="patch_1">
   <path d="M 0 732.24 
L 1382.4 732.24 
L 1382.4 0 
L 0 0 
z
" style="fill:#ffffff;"/>
  </g>
  <g id="axes_1">
   <g id="patch_2">
    <path d="M 172.8 651.6936 
L 1244.16 651.6936 
L 1244.16 87.8688 
L 172.8 87.8688 
z
" style="fill:#ffffff;"/>
   </g>
   <g id="matplotlib.axis_1">
    <g id="xtick_1">
     <g id="line2d_1">
      <defs>
       <path d="M 0 0 
L 0 3.5 
" id="ma6e0701c4e" style="stroke:#000000;stroke-width:0.8;"/>
      </defs>
      <g>
       <use style="stroke:#000000;stroke-width:0.8;" x="211.660165" xlink:href="#ma6e0701c4e" y="651.6936"/>
      </g>
     </g>
     <g id="text_1">
      <!-- 0 -->
      <g transform="translate(208.478915 666.292037)scale(0.1 -0.1)">
       <defs>
        <path d="M 31.78125 66.40625 
Q 24.171875 66.40625 20.328125 58.90625 
Q 16.5 51.421875 16.5 36.375 
Q 16.5 21.390625 20.328125 13.890625 
Q 24.171875 6.390625 31.78125 6.390625 
Q 39.453125 6.390625 43.28125 13.890625 
Q 47.125 21.390625 47.125 36.375 
Q 47.125 51.421875 43.28125 58.90625 
Q 39.453125 66.40625 31.78125 66.40625 
z
M 31.78125 74.21875 
Q 44.046875 74.21875 50.515625 64.515625 
Q 56.984375 54.828125 56.984375 36.375 
Q 56.984375 17.96875 50.515625 8.265625 
Q 44.046875 -1.421875 31.78125 -1.421875 
Q 19.53125 -1.421875 13.0625 8.265625 
Q 6.59375 17.96875 6.59375 36.375 
Q 6.59375 54.828125 13.0625 64.515625 
Q 19.53125 74.21875 31.78125 74.21875 
z
" id="DejaVuSans-48"/>
       </defs>
       <use xlink:href="#DejaVuSans-48"/>
      </g>
     </g>
    </g>
    <g id="xtick_2">
     <g id="line2d_2">
      <g>
       <use style="stroke:#000000;stroke-width:0.8;" x="408.420496" xlink:href="#ma6e0701c4e" y="651.6936"/>
      </g>
     </g>
     <g id="text_2">
      <!-- 20 -->
      <g transform="translate(402.057996 666.292037)scale(0.1 -0.1)">
       <defs>
        <path d="M 19.1875 8.296875 
L 53.609375 8.296875 
L 53.609375 0 
L 7.328125 0 
L 7.328125 8.296875 
Q 12.9375 14.109375 22.625 23.890625 
Q 32.328125 33.6875 34.8125 36.53125 
Q 39.546875 41.84375 41.421875 45.53125 
Q 43.3125 49.21875 43.3125 52.78125 
Q 43.3125 58.59375 39.234375 62.25 
Q 35.15625 65.921875 28.609375 65.921875 
Q 23.96875 65.921875 18.8125 64.3125 
Q 13.671875 62.703125 7.8125 59.421875 
L 7.8125 69.390625 
Q 13.765625 71.78125 18.9375 73 
Q 24.125 74.21875 28.421875 74.21875 
Q 39.75 74.21875 46.484375 68.546875 
Q 53.21875 62.890625 53.21875 53.421875 
Q 53.21875 48.921875 51.53125 44.890625 
Q 49.859375 40.875 45.40625 35.40625 
Q 44.1875 33.984375 37.640625 27.21875 
Q 31.109375 20.453125 19.1875 8.296875 
z
" id="DejaVuSans-50"/>
       </defs>
       <use xlink:href="#DejaVuSans-50"/>
       <use x="63.623047" xlink:href="#DejaVuSans-48"/>
      </g>
     </g>
    </g>
    <g id="xtick_3">
     <g id="line2d_3">
      <g>
       <use style="stroke:#000000;stroke-width:0.8;" x="605.180826" xlink:href="#ma6e0701c4e" y="651.6936"/>
      </g>
     </g>
     <g id="text_3">
      <!-- 40 -->
      <g transform="translate(598.818326 666.292037)scale(0.1 -0.1)">
       <defs>
        <path d="M 37.796875 64.3125 
L 12.890625 25.390625 
L 37.796875 25.390625 
z
M 35.203125 72.90625 
L 47.609375 72.90625 
L 47.609375 25.390625 
L 58.015625 25.390625 
L 58.015625 17.1875 
L 47.609375 17.1875 
L 47.609375 0 
L 37.796875 0 
L 37.796875 17.1875 
L 4.890625 17.1875 
L 4.890625 26.703125 
z
" id="DejaVuSans-52"/>
       </defs>
       <use xlink:href="#DejaVuSans-52"/>
       <use x="63.623047" xlink:href="#DejaVuSans-48"/>
      </g>
     </g>
    </g>
    <g id="xtick_4">
     <g id="line2d_4">
      <g>
       <use style="stroke:#000000;stroke-width:0.8;" x="801.941157" xlink:href="#ma6e0701c4e" y="651.6936"/>
      </g>
     </g>
     <g id="text_4">
      <!-- 60 -->
      <g transform="translate(795.578657 666.292037)scale(0.1 -0.1)">
       <defs>
        <path d="M 33.015625 40.375 
Q 26.375 40.375 22.484375 35.828125 
Q 18.609375 31.296875 18.609375 23.390625 
Q 18.609375 15.53125 22.484375 10.953125 
Q 26.375 6.390625 33.015625 6.390625 
Q 39.65625 6.390625 43.53125 10.953125 
Q 47.40625 15.53125 47.40625 23.390625 
Q 47.40625 31.296875 43.53125 35.828125 
Q 39.65625 40.375 33.015625 40.375 
z
M 52.59375 71.296875 
L 52.59375 62.3125 
Q 48.875 64.0625 45.09375 64.984375 
Q 41.3125 65.921875 37.59375 65.921875 
Q 27.828125 65.921875 22.671875 59.328125 
Q 17.53125 52.734375 16.796875 39.40625 
Q 19.671875 43.65625 24.015625 45.921875 
Q 28.375 48.1875 33.59375 48.1875 
Q 44.578125 48.1875 50.953125 41.515625 
Q 57.328125 34.859375 57.328125 23.390625 
Q 57.328125 12.15625 50.6875 5.359375 
Q 44.046875 -1.421875 33.015625 -1.421875 
Q 20.359375 -1.421875 13.671875 8.265625 
Q 6.984375 17.96875 6.984375 36.375 
Q 6.984375 53.65625 15.1875 63.9375 
Q 23.390625 74.21875 37.203125 74.21875 
Q 40.921875 74.21875 44.703125 73.484375 
Q 48.484375 72.75 52.59375 71.296875 
z
" id="DejaVuSans-54"/>
       </defs>
       <use xlink:href="#DejaVuSans-54"/>
       <use x="63.623047" xlink:href="#DejaVuSans-48"/>
      </g>
     </g>
    </g>
    <g id="xtick_5">
     <g id="line2d_5">
      <g>
       <use style="stroke:#000000;stroke-width:0.8;" x="998.701488" xlink:href="#ma6e0701c4e" y="651.6936"/>
      </g>
     </g>
     <g id="text_5">
      <!-- 80 -->
      <g transform="translate(992.338988 666.292037)scale(0.1 -0.1)">
       <defs>
        <path d="M 31.78125 34.625 
Q 24.75 34.625 20.71875 30.859375 
Q 16.703125 27.09375 16.703125 20.515625 
Q 16.703125 13.921875 20.71875 10.15625 
Q 24.75 6.390625 31.78125 6.390625 
Q 38.8125 6.390625 42.859375 10.171875 
Q 46.921875 13.96875 46.921875 20.515625 
Q 46.921875 27.09375 42.890625 30.859375 
Q 38.875 34.625 31.78125 34.625 
z
M 21.921875 38.8125 
Q 15.578125 40.375 12.03125 44.71875 
Q 8.5 49.078125 8.5 55.328125 
Q 8.5 64.0625 14.71875 69.140625 
Q 20.953125 74.21875 31.78125 74.21875 
Q 42.671875 74.21875 48.875 69.140625 
Q 55.078125 64.0625 55.078125 55.328125 
Q 55.078125 49.078125 51.53125 44.71875 
Q 48 40.375 41.703125 38.8125 
Q 48.828125 37.15625 52.796875 32.3125 
Q 56.78125 27.484375 56.78125 20.515625 
Q 56.78125 9.90625 50.3125 4.234375 
Q 43.84375 -1.421875 31.78125 -1.421875 
Q 19.734375 -1.421875 13.25 4.234375 
Q 6.78125 9.90625 6.78125 20.515625 
Q 6.78125 27.484375 10.78125 32.3125 
Q 14.796875 37.15625 21.921875 38.8125 
z
M 18.3125 54.390625 
Q 18.3125 48.734375 21.84375 45.5625 
Q 25.390625 42.390625 31.78125 42.390625 
Q 38.140625 42.390625 41.71875 45.5625 
Q 45.3125 48.734375 45.3125 54.390625 
Q 45.3125 60.0625 41.71875 63.234375 
Q 38.140625 66.40625 31.78125 66.40625 
Q 25.390625 66.40625 21.84375 63.234375 
Q 18.3125 60.0625 18.3125 54.390625 
z
" id="DejaVuSans-56"/>
       </defs>
       <use xlink:href="#DejaVuSans-56"/>
       <use x="63.623047" xlink:href="#DejaVuSans-48"/>
      </g>
     </g>
    </g>
    <g id="xtick_6">
     <g id="line2d_6">
      <g>
       <use style="stroke:#000000;stroke-width:0.8;" x="1195.461818" xlink:href="#ma6e0701c4e" y="651.6936"/>
      </g>
     </g>
     <g id="text_6">
      <!-- 100 -->
      <g transform="translate(1185.918068 666.292037)scale(0.1 -0.1)">
       <defs>
        <path d="M 12.40625 8.296875 
L 28.515625 8.296875 
L 28.515625 63.921875 
L 10.984375 60.40625 
L 10.984375 69.390625 
L 28.421875 72.90625 
L 38.28125 72.90625 
L 38.28125 8.296875 
L 54.390625 8.296875 
L 54.390625 0 
L 12.40625 0 
z
" id="DejaVuSans-49"/>
       </defs>
       <use xlink:href="#DejaVuSans-49"/>
       <use x="63.623047" xlink:href="#DejaVuSans-48"/>
       <use x="127.246094" xlink:href="#DejaVuSans-48"/>
      </g>
     </g>
    </g>
    <g id="text_7">
     <!-- the number of concurrent processes sending 100 requests -->
     <g transform="translate(562.004219 679.970163)scale(0.1 -0.1)">
      <defs>
       <path d="M 18.3125 70.21875 
L 18.3125 54.6875 
L 36.8125 54.6875 
L 36.8125 47.703125 
L 18.3125 47.703125 
L 18.3125 18.015625 
Q 18.3125 11.328125 20.140625 9.421875 
Q 21.96875 7.515625 27.59375 7.515625 
L 36.8125 7.515625 
L 36.8125 0 
L 27.59375 0 
Q 17.1875 0 13.234375 3.875 
Q 9.28125 7.765625 9.28125 18.015625 
L 9.28125 47.703125 
L 2.6875 47.703125 
L 2.6875 54.6875 
L 9.28125 54.6875 
L 9.28125 70.21875 
z
" id="DejaVuSans-116"/>
       <path d="M 54.890625 33.015625 
L 54.890625 0 
L 45.90625 0 
L 45.90625 32.71875 
Q 45.90625 40.484375 42.875 44.328125 
Q 39.84375 48.1875 33.796875 48.1875 
Q 26.515625 48.1875 22.3125 43.546875 
Q 18.109375 38.921875 18.109375 30.90625 
L 18.109375 0 
L 9.078125 0 
L 9.078125 75.984375 
L 18.109375 75.984375 
L 18.109375 46.1875 
Q 21.34375 51.125 25.703125 53.5625 
Q 30.078125 56 35.796875 56 
Q 45.21875 56 50.046875 50.171875 
Q 54.890625 44.34375 54.890625 33.015625 
z
" id="DejaVuSans-104"/>
       <path d="M 56.203125 29.59375 
L 56.203125 25.203125 
L 14.890625 25.203125 
Q 15.484375 15.921875 20.484375 11.0625 
Q 25.484375 6.203125 34.421875 6.203125 
Q 39.59375 6.203125 44.453125 7.46875 
Q 49.3125 8.734375 54.109375 11.28125 
L 54.109375 2.78125 
Q 49.265625 0.734375 44.1875 -0.34375 
Q 39.109375 -1.421875 33.890625 -1.421875 
Q 20.796875 -1.421875 13.15625 6.1875 
Q 5.515625 13.8125 5.515625 26.8125 
Q 5.515625 40.234375 12.765625 48.109375 
Q 20.015625 56 32.328125 56 
Q 43.359375 56 49.78125 48.890625 
Q 56.203125 41.796875 56.203125 29.59375 
z
M 47.21875 32.234375 
Q 47.125 39.59375 43.09375 43.984375 
Q 39.0625 48.390625 32.421875 48.390625 
Q 24.90625 48.390625 20.390625 44.140625 
Q 15.875 39.890625 15.1875 32.171875 
z
" id="DejaVuSans-101"/>
       <path id="DejaVuSans-32"/>
       <path d="M 54.890625 33.015625 
L 54.890625 0 
L 45.90625 0 
L 45.90625 32.71875 
Q 45.90625 40.484375 42.875 44.328125 
Q 39.84375 48.1875 33.796875 48.1875 
Q 26.515625 48.1875 22.3125 43.546875 
Q 18.109375 38.921875 18.109375 30.90625 
L 18.109375 0 
L 9.078125 0 
L 9.078125 54.6875 
L 18.109375 54.6875 
L 18.109375 46.1875 
Q 21.34375 51.125 25.703125 53.5625 
Q 30.078125 56 35.796875 56 
Q 45.21875 56 50.046875 50.171875 
Q 54.890625 44.34375 54.890625 33.015625 
z
" id="DejaVuSans-110"/>
       <path d="M 8.5 21.578125 
L 8.5 54.6875 
L 17.484375 54.6875 
L 17.484375 21.921875 
Q 17.484375 14.15625 20.5 10.265625 
Q 23.53125 6.390625 29.59375 6.390625 
Q 36.859375 6.390625 41.078125 11.03125 
Q 45.3125 15.671875 45.3125 23.6875 
L 45.3125 54.6875 
L 54.296875 54.6875 
L 54.296875 0 
L 45.3125 0 
L 45.3125 8.40625 
Q 42.046875 3.421875 37.71875 1 
Q 33.40625 -1.421875 27.6875 -1.421875 
Q 18.265625 -1.421875 13.375 4.4375 
Q 8.5 10.296875 8.5 21.578125 
z
M 31.109375 56 
z
" id="DejaVuSans-117"/>
       <path d="M 52 44.1875 
Q 55.375 50.25 60.0625 53.125 
Q 64.75 56 71.09375 56 
Q 79.640625 56 84.28125 50.015625 
Q 88.921875 44.046875 88.921875 33.015625 
L 88.921875 0 
L 79.890625 0 
L 79.890625 32.71875 
Q 79.890625 40.578125 77.09375 44.375 
Q 74.3125 48.1875 68.609375 48.1875 
Q 61.625 48.1875 57.5625 43.546875 
Q 53.515625 38.921875 53.515625 30.90625 
L 53.515625 0 
L 44.484375 0 
L 44.484375 32.71875 
Q 44.484375 40.625 41.703125 44.40625 
Q 38.921875 48.1875 33.109375 48.1875 
Q 26.21875 48.1875 22.15625 43.53125 
Q 18.109375 38.875 18.109375 30.90625 
L 18.109375 0 
L 9.078125 0 
L 9.078125 54.6875 
L 18.109375 54.6875 
L 18.109375 46.1875 
Q 21.1875 51.21875 25.484375 53.609375 
Q 29.78125 56 35.6875 56 
Q 41.65625 56 45.828125 52.96875 
Q 50 49.953125 52 44.1875 
z
" id="DejaVuSans-109"/>
       <path d="M 48.6875 27.296875 
Q 48.6875 37.203125 44.609375 42.84375 
Q 40.53125 48.484375 33.40625 48.484375 
Q 26.265625 48.484375 22.1875 42.84375 
Q 18.109375 37.203125 18.109375 27.296875 
Q 18.109375 17.390625 22.1875 11.75 
Q 26.265625 6.109375 33.40625 6.109375 
Q 40.53125 6.109375 44.609375 11.75 
Q 48.6875 17.390625 48.6875 27.296875 
z
M 18.109375 46.390625 
Q 20.953125 51.265625 25.265625 53.625 
Q 29.59375 56 35.59375 56 
Q 45.5625 56 51.78125 48.09375 
Q 58.015625 40.1875 58.015625 27.296875 
Q 58.015625 14.40625 51.78125 6.484375 
Q 45.5625 -1.421875 35.59375 -1.421875 
Q 29.59375 -1.421875 25.265625 0.953125 
Q 20.953125 3.328125 18.109375 8.203125 
L 18.109375 0 
L 9.078125 0 
L 9.078125 75.984375 
L 18.109375 75.984375 
z
" id="DejaVuSans-98"/>
       <path d="M 41.109375 46.296875 
Q 39.59375 47.171875 37.8125 47.578125 
Q 36.03125 48 33.890625 48 
Q 26.265625 48 22.1875 43.046875 
Q 18.109375 38.09375 18.109375 28.8125 
L 18.109375 0 
L 9.078125 0 
L 9.078125 54.6875 
L 18.109375 54.6875 
L 18.109375 46.1875 
Q 20.953125 51.171875 25.484375 53.578125 
Q 30.03125 56 36.53125 56 
Q 37.453125 56 38.578125 55.875 
Q 39.703125 55.765625 41.0625 55.515625 
z
" id="DejaVuSans-114"/>
       <path d="M 30.609375 48.390625 
Q 23.390625 48.390625 19.1875 42.75 
Q 14.984375 37.109375 14.984375 27.296875 
Q 14.984375 17.484375 19.15625 11.84375 
Q 23.34375 6.203125 30.609375 6.203125 
Q 37.796875 6.203125 41.984375 11.859375 
Q 46.1875 17.53125 46.1875 27.296875 
Q 46.1875 37.015625 41.984375 42.703125 
Q 37.796875 48.390625 30.609375 48.390625 
z
M 30.609375 56 
Q 42.328125 56 49.015625 48.375 
Q 55.71875 40.765625 55.71875 27.296875 
Q 55.71875 13.875 49.015625 6.21875 
Q 42.328125 -1.421875 30.609375 -1.421875 
Q 18.84375 -1.421875 12.171875 6.21875 
Q 5.515625 13.875 5.515625 27.296875 
Q 5.515625 40.765625 12.171875 48.375 
Q 18.84375 56 30.609375 56 
z
" id="DejaVuSans-111"/>
       <path d="M 37.109375 75.984375 
L 37.109375 68.5 
L 28.515625 68.5 
Q 23.6875 68.5 21.796875 66.546875 
Q 19.921875 64.59375 19.921875 59.515625 
L 19.921875 54.6875 
L 34.71875 54.6875 
L 34.71875 47.703125 
L 19.921875 47.703125 
L 19.921875 0 
L 10.890625 0 
L 10.890625 47.703125 
L 2.296875 47.703125 
L 2.296875 54.6875 
L 10.890625 54.6875 
L 10.890625 58.5 
Q 10.890625 67.625 15.140625 71.796875 
Q 19.390625 75.984375 28.609375 75.984375 
z
" id="DejaVuSans-102"/>
       <path d="M 48.78125 52.59375 
L 48.78125 44.1875 
Q 44.96875 46.296875 41.140625 47.34375 
Q 37.3125 48.390625 33.40625 48.390625 
Q 24.65625 48.390625 19.8125 42.84375 
Q 14.984375 37.3125 14.984375 27.296875 
Q 14.984375 17.28125 19.8125 11.734375 
Q 24.65625 6.203125 33.40625 6.203125 
Q 37.3125 6.203125 41.140625 7.25 
Q 44.96875 8.296875 48.78125 10.40625 
L 48.78125 2.09375 
Q 45.015625 0.34375 40.984375 -0.53125 
Q 36.96875 -1.421875 32.421875 -1.421875 
Q 20.0625 -1.421875 12.78125 6.34375 
Q 5.515625 14.109375 5.515625 27.296875 
Q 5.515625 40.671875 12.859375 48.328125 
Q 20.21875 56 33.015625 56 
Q 37.15625 56 41.109375 55.140625 
Q 45.0625 54.296875 48.78125 52.59375 
z
" id="DejaVuSans-99"/>
       <path d="M 18.109375 8.203125 
L 18.109375 -20.796875 
L 9.078125 -20.796875 
L 9.078125 54.6875 
L 18.109375 54.6875 
L 18.109375 46.390625 
Q 20.953125 51.265625 25.265625 53.625 
Q 29.59375 56 35.59375 56 
Q 45.5625 56 51.78125 48.09375 
Q 58.015625 40.1875 58.015625 27.296875 
Q 58.015625 14.40625 51.78125 6.484375 
Q 45.5625 -1.421875 35.59375 -1.421875 
Q 29.59375 -1.421875 25.265625 0.953125 
Q 20.953125 3.328125 18.109375 8.203125 
z
M 48.6875 27.296875 
Q 48.6875 37.203125 44.609375 42.84375 
Q 40.53125 48.484375 33.40625 48.484375 
Q 26.265625 48.484375 22.1875 42.84375 
Q 18.109375 37.203125 18.109375 27.296875 
Q 18.109375 17.390625 22.1875 11.75 
Q 26.265625 6.109375 33.40625 6.109375 
Q 40.53125 6.109375 44.609375 11.75 
Q 48.6875 17.390625 48.6875 27.296875 
z
" id="DejaVuSans-112"/>
       <path d="M 44.28125 53.078125 
L 44.28125 44.578125 
Q 40.484375 46.53125 36.375 47.5 
Q 32.28125 48.484375 27.875 48.484375 
Q 21.1875 48.484375 17.84375 46.4375 
Q 14.5 44.390625 14.5 40.28125 
Q 14.5 37.15625 16.890625 35.375 
Q 19.28125 33.59375 26.515625 31.984375 
L 29.59375 31.296875 
Q 39.15625 29.25 43.1875 25.515625 
Q 47.21875 21.78125 47.21875 15.09375 
Q 47.21875 7.46875 41.1875 3.015625 
Q 35.15625 -1.421875 24.609375 -1.421875 
Q 20.21875 -1.421875 15.453125 -0.5625 
Q 10.6875 0.296875 5.421875 2 
L 5.421875 11.28125 
Q 10.40625 8.6875 15.234375 7.390625 
Q 20.0625 6.109375 24.8125 6.109375 
Q 31.15625 6.109375 34.5625 8.28125 
Q 37.984375 10.453125 37.984375 14.40625 
Q 37.984375 18.0625 35.515625 20.015625 
Q 33.0625 21.96875 24.703125 23.78125 
L 21.578125 24.515625 
Q 13.234375 26.265625 9.515625 29.90625 
Q 5.8125 33.546875 5.8125 39.890625 
Q 5.8125 47.609375 11.28125 51.796875 
Q 16.75 56 26.8125 56 
Q 31.78125 56 36.171875 55.265625 
Q 40.578125 54.546875 44.28125 53.078125 
z
" id="DejaVuSans-115"/>
       <path d="M 45.40625 46.390625 
L 45.40625 75.984375 
L 54.390625 75.984375 
L 54.390625 0 
L 45.40625 0 
L 45.40625 8.203125 
Q 42.578125 3.328125 38.25 0.953125 
Q 33.9375 -1.421875 27.875 -1.421875 
Q 17.96875 -1.421875 11.734375 6.484375 
Q 5.515625 14.40625 5.515625 27.296875 
Q 5.515625 40.1875 11.734375 48.09375 
Q 17.96875 56 27.875 56 
Q 33.9375 56 38.25 53.625 
Q 42.578125 51.265625 45.40625 46.390625 
z
M 14.796875 27.296875 
Q 14.796875 17.390625 18.875 11.75 
Q 22.953125 6.109375 30.078125 6.109375 
Q 37.203125 6.109375 41.296875 11.75 
Q 45.40625 17.390625 45.40625 27.296875 
Q 45.40625 37.203125 41.296875 42.84375 
Q 37.203125 48.484375 30.078125 48.484375 
Q 22.953125 48.484375 18.875 42.84375 
Q 14.796875 37.203125 14.796875 27.296875 
z
" id="DejaVuSans-100"/>
       <path d="M 9.421875 54.6875 
L 18.40625 54.6875 
L 18.40625 0 
L 9.421875 0 
z
M 9.421875 75.984375 
L 18.40625 75.984375 
L 18.40625 64.59375 
L 9.421875 64.59375 
z
" id="DejaVuSans-105"/>
       <path d="M 45.40625 27.984375 
Q 45.40625 37.75 41.375 43.109375 
Q 37.359375 48.484375 30.078125 48.484375 
Q 22.859375 48.484375 18.828125 43.109375 
Q 14.796875 37.75 14.796875 27.984375 
Q 14.796875 18.265625 18.828125 12.890625 
Q 22.859375 7.515625 30.078125 7.515625 
Q 37.359375 7.515625 41.375 12.890625 
Q 45.40625 18.265625 45.40625 27.984375 
z
M 54.390625 6.78125 
Q 54.390625 -7.171875 48.1875 -13.984375 
Q 42 -20.796875 29.203125 -20.796875 
Q 24.46875 -20.796875 20.265625 -20.09375 
Q 16.0625 -19.390625 12.109375 -17.921875 
L 12.109375 -9.1875 
Q 16.0625 -11.328125 19.921875 -12.34375 
Q 23.78125 -13.375 27.78125 -13.375 
Q 36.625 -13.375 41.015625 -8.765625 
Q 45.40625 -4.15625 45.40625 5.171875 
L 45.40625 9.625 
Q 42.625 4.78125 38.28125 2.390625 
Q 33.9375 0 27.875 0 
Q 17.828125 0 11.671875 7.65625 
Q 5.515625 15.328125 5.515625 27.984375 
Q 5.515625 40.671875 11.671875 48.328125 
Q 17.828125 56 27.875 56 
Q 33.9375 56 38.28125 53.609375 
Q 42.625 51.21875 45.40625 46.390625 
L 45.40625 54.6875 
L 54.390625 54.6875 
z
" id="DejaVuSans-103"/>
       <path d="M 14.796875 27.296875 
Q 14.796875 17.390625 18.875 11.75 
Q 22.953125 6.109375 30.078125 6.109375 
Q 37.203125 6.109375 41.296875 11.75 
Q 45.40625 17.390625 45.40625 27.296875 
Q 45.40625 37.203125 41.296875 42.84375 
Q 37.203125 48.484375 30.078125 48.484375 
Q 22.953125 48.484375 18.875 42.84375 
Q 14.796875 37.203125 14.796875 27.296875 
z
M 45.40625 8.203125 
Q 42.578125 3.328125 38.25 0.953125 
Q 33.9375 -1.421875 27.875 -1.421875 
Q 17.96875 -1.421875 11.734375 6.484375 
Q 5.515625 14.40625 5.515625 27.296875 
Q 5.515625 40.1875 11.734375 48.09375 
Q 17.96875 56 27.875 56 
Q 33.9375 56 38.25 53.625 
Q 42.578125 51.265625 45.40625 46.390625 
L 45.40625 54.6875 
L 54.390625 54.6875 
L 54.390625 -20.796875 
L 45.40625 -20.796875 
z
" id="DejaVuSans-113"/>
      </defs>
      <use xlink:href="#DejaVuSans-116"/>
      <use x="39.208984" xlink:href="#DejaVuSans-104"/>
      <use x="102.587891" xlink:href="#DejaVuSans-101"/>
      <use x="164.111328" xlink:href="#DejaVuSans-32"/>
      <use x="195.898438" xlink:href="#DejaVuSans-110"/>
      <use x="259.277344" xlink:href="#DejaVuSans-117"/>
      <use x="322.65625" xlink:href="#DejaVuSans-109"/>
      <use x="420.068359" xlink:href="#DejaVuSans-98"/>
      <use x="483.544922" xlink:href="#DejaVuSans-101"/>
      <use x="545.068359" xlink:href="#DejaVuSans-114"/>
      <use x="586.181641" xlink:href="#DejaVuSans-32"/>
      <use x="617.96875" xlink:href="#DejaVuSans-111"/>
      <use x="679.150391" xlink:href="#DejaVuSans-102"/>
      <use x="714.355469" xlink:href="#DejaVuSans-32"/>
      <use x="746.142578" xlink:href="#DejaVuSans-99"/>
      <use x="801.123047" xlink:href="#DejaVuSans-111"/>
      <use x="862.304688" xlink:href="#DejaVuSans-110"/>
      <use x="925.683594" xlink:href="#DejaVuSans-99"/>
      <use x="980.664062" xlink:href="#DejaVuSans-117"/>
      <use x="1044.042969" xlink:href="#DejaVuSans-114"/>
      <use x="1083.40625" xlink:href="#DejaVuSans-114"/>
      <use x="1122.269531" xlink:href="#DejaVuSans-101"/>
      <use x="1183.792969" xlink:href="#DejaVuSans-110"/>
      <use x="1247.171875" xlink:href="#DejaVuSans-116"/>
      <use x="1286.380859" xlink:href="#DejaVuSans-32"/>
      <use x="1318.167969" xlink:href="#DejaVuSans-112"/>
      <use x="1381.644531" xlink:href="#DejaVuSans-114"/>
      <use x="1420.507812" xlink:href="#DejaVuSans-111"/>
      <use x="1481.689453" xlink:href="#DejaVuSans-99"/>
      <use x="1536.669922" xlink:href="#DejaVuSans-101"/>
      <use x="1598.193359" xlink:href="#DejaVuSans-115"/>
      <use x="1650.292969" xlink:href="#DejaVuSans-115"/>
      <use x="1702.392578" xlink:href="#DejaVuSans-101"/>
      <use x="1763.916016" xlink:href="#DejaVuSans-115"/>
      <use x="1816.015625" xlink:href="#DejaVuSans-32"/>
      <use x="1847.802734" xlink:href="#DejaVuSans-115"/>
      <use x="1899.902344" xlink:href="#DejaVuSans-101"/>
      <use x="1961.425781" xlink:href="#DejaVuSans-110"/>
      <use x="2024.804688" xlink:href="#DejaVuSans-100"/>
      <use x="2088.28125" xlink:href="#DejaVuSans-105"/>
      <use x="2116.064453" xlink:href="#DejaVuSans-110"/>
      <use x="2179.443359" xlink:href="#DejaVuSans-103"/>
      <use x="2242.919922" xlink:href="#DejaVuSans-32"/>
      <use x="2274.707031" xlink:href="#DejaVuSans-49"/>
      <use x="2338.330078" xlink:href="#DejaVuSans-48"/>
      <use x="2401.953125" xlink:href="#DejaVuSans-48"/>
      <use x="2465.576172" xlink:href="#DejaVuSans-32"/>
      <use x="2497.363281" xlink:href="#DejaVuSans-114"/>
      <use x="2536.226562" xlink:href="#DejaVuSans-101"/>
      <use x="2597.75" xlink:href="#DejaVuSans-113"/>
      <use x="2661.226562" xlink:href="#DejaVuSans-117"/>
      <use x="2724.605469" xlink:href="#DejaVuSans-101"/>
      <use x="2786.128906" xlink:href="#DejaVuSans-115"/>
      <use x="2838.228516" xlink:href="#DejaVuSans-116"/>
      <use x="2877.4375" xlink:href="#DejaVuSans-115"/>
     </g>
    </g>
   </g>
   <g id="matplotlib.axis_2">
    <g id="ytick_1">
     <g id="line2d_7">
      <defs>
       <path d="M 0 0 
L -3.5 0 
" id="m8fb9e1d748" style="stroke:#000000;stroke-width:0.8;"/>
      </defs>
      <g>
       <use style="stroke:#000000;stroke-width:0.8;" x="172.8" xlink:href="#m8fb9e1d748" y="626.077895"/>
      </g>
     </g>
     <g id="text_8">
      <!-- 0 -->
      <g transform="translate(159.4375 629.877114)scale(0.1 -0.1)">
       <use xlink:href="#DejaVuSans-48"/>
      </g>
     </g>
    </g>
    <g id="ytick_2">
     <g id="line2d_8">
      <g>
       <use style="stroke:#000000;stroke-width:0.8;" x="172.8" xlink:href="#m8fb9e1d748" y="561.865647"/>
      </g>
     </g>
     <g id="text_9">
      <!-- 25000 -->
      <g transform="translate(133.9875 565.664866)scale(0.1 -0.1)">
       <defs>
        <path d="M 10.796875 72.90625 
L 49.515625 72.90625 
L 49.515625 64.59375 
L 19.828125 64.59375 
L 19.828125 46.734375 
Q 21.96875 47.46875 24.109375 47.828125 
Q 26.265625 48.1875 28.421875 48.1875 
Q 40.625 48.1875 47.75 41.5 
Q 54.890625 34.8125 54.890625 23.390625 
Q 54.890625 11.625 47.5625 5.09375 
Q 40.234375 -1.421875 26.90625 -1.421875 
Q 22.3125 -1.421875 17.546875 -0.640625 
Q 12.796875 0.140625 7.71875 1.703125 
L 7.71875 11.625 
Q 12.109375 9.234375 16.796875 8.0625 
Q 21.484375 6.890625 26.703125 6.890625 
Q 35.15625 6.890625 40.078125 11.328125 
Q 45.015625 15.765625 45.015625 23.390625 
Q 45.015625 31 40.078125 35.4375 
Q 35.15625 39.890625 26.703125 39.890625 
Q 22.75 39.890625 18.8125 39.015625 
Q 14.890625 38.140625 10.796875 36.28125 
z
" id="DejaVuSans-53"/>
       </defs>
       <use xlink:href="#DejaVuSans-50"/>
       <use x="63.623047" xlink:href="#DejaVuSans-53"/>
       <use x="127.246094" xlink:href="#DejaVuSans-48"/>
       <use x="190.869141" xlink:href="#DejaVuSans-48"/>
       <use x="254.492188" xlink:href="#DejaVuSans-48"/>
      </g>
     </g>
    </g>
    <g id="ytick_3">
     <g id="line2d_9">
      <g>
       <use style="stroke:#000000;stroke-width:0.8;" x="172.8" xlink:href="#m8fb9e1d748" y="497.653398"/>
      </g>
     </g>
     <g id="text_10">
      <!-- 50000 -->
      <g transform="translate(133.9875 501.452617)scale(0.1 -0.1)">
       <use xlink:href="#DejaVuSans-53"/>
       <use x="63.623047" xlink:href="#DejaVuSans-48"/>
       <use x="127.246094" xlink:href="#DejaVuSans-48"/>
       <use x="190.869141" xlink:href="#DejaVuSans-48"/>
       <use x="254.492188" xlink:href="#DejaVuSans-48"/>
      </g>
     </g>
    </g>
    <g id="ytick_4">
     <g id="line2d_10">
      <g>
       <use style="stroke:#000000;stroke-width:0.8;" x="172.8" xlink:href="#m8fb9e1d748" y="433.44115"/>
      </g>
     </g>
     <g id="text_11">
      <!-- 75000 -->
      <g transform="translate(133.9875 437.240368)scale(0.1 -0.1)">
       <defs>
        <path d="M 8.203125 72.90625 
L 55.078125 72.90625 
L 55.078125 68.703125 
L 28.609375 0 
L 18.3125 0 
L 43.21875 64.59375 
L 8.203125 64.59375 
z
" id="DejaVuSans-55"/>
       </defs>
       <use xlink:href="#DejaVuSans-55"/>
       <use x="63.623047" xlink:href="#DejaVuSans-53"/>
       <use x="127.246094" xlink:href="#DejaVuSans-48"/>
       <use x="190.869141" xlink:href="#DejaVuSans-48"/>
       <use x="254.492188" xlink:href="#DejaVuSans-48"/>
      </g>
     </g>
    </g>
    <g id="ytick_5">
     <g id="line2d_11">
      <g>
       <use style="stroke:#000000;stroke-width:0.8;" x="172.8" xlink:href="#m8fb9e1d748" y="369.228901"/>
      </g>
     </g>
     <g id="text_12">
      <!-- 100000 -->
      <g transform="translate(127.625 373.02812)scale(0.1 -0.1)">
       <use xlink:href="#DejaVuSans-49"/>
       <use x="63.623047" xlink:href="#DejaVuSans-48"/>
       <use x="127.246094" xlink:href="#DejaVuSans-48"/>
       <use x="190.869141" xlink:href="#DejaVuSans-48"/>
       <use x="254.492188" xlink:href="#DejaVuSans-48"/>
       <use x="318.115234" xlink:href="#DejaVuSans-48"/>
      </g>
     </g>
    </g>
    <g id="ytick_6">
     <g id="line2d_12">
      <g>
       <use style="stroke:#000000;stroke-width:0.8;" x="172.8" xlink:href="#m8fb9e1d748" y="305.016653"/>
      </g>
     </g>
     <g id="text_13">
      <!-- 125000 -->
      <g transform="translate(127.625 308.815871)scale(0.1 -0.1)">
       <use xlink:href="#DejaVuSans-49"/>
       <use x="63.623047" xlink:href="#DejaVuSans-50"/>
       <use x="127.246094" xlink:href="#DejaVuSans-53"/>
       <use x="190.869141" xlink:href="#DejaVuSans-48"/>
       <use x="254.492188" xlink:href="#DejaVuSans-48"/>
       <use x="318.115234" xlink:href="#DejaVuSans-48"/>
      </g>
     </g>
    </g>
    <g id="ytick_7">
     <g id="line2d_13">
      <g>
       <use style="stroke:#000000;stroke-width:0.8;" x="172.8" xlink:href="#m8fb9e1d748" y="240.804404"/>
      </g>
     </g>
     <g id="text_14">
      <!-- 150000 -->
      <g transform="translate(127.625 244.603623)scale(0.1 -0.1)">
       <use xlink:href="#DejaVuSans-49"/>
       <use x="63.623047" xlink:href="#DejaVuSans-53"/>
       <use x="127.246094" xlink:href="#DejaVuSans-48"/>
       <use x="190.869141" xlink:href="#DejaVuSans-48"/>
       <use x="254.492188" xlink:href="#DejaVuSans-48"/>
       <use x="318.115234" xlink:href="#DejaVuSans-48"/>
      </g>
     </g>
    </g>
    <g id="ytick_8">
     <g id="line2d_14">
      <g>
       <use style="stroke:#000000;stroke-width:0.8;" x="172.8" xlink:href="#m8fb9e1d748" y="176.592155"/>
      </g>
     </g>
     <g id="text_15">
      <!-- 175000 -->
      <g transform="translate(127.625 180.391374)scale(0.1 -0.1)">
       <use xlink:href="#DejaVuSans-49"/>
       <use x="63.623047" xlink:href="#DejaVuSans-55"/>
       <use x="127.246094" xlink:href="#DejaVuSans-53"/>
       <use x="190.869141" xlink:href="#DejaVuSans-48"/>
       <use x="254.492188" xlink:href="#DejaVuSans-48"/>
       <use x="318.115234" xlink:href="#DejaVuSans-48"/>
      </g>
     </g>
    </g>
    <g id="ytick_9">
     <g id="line2d_15">
      <g>
       <use style="stroke:#000000;stroke-width:0.8;" x="172.8" xlink:href="#m8fb9e1d748" y="112.379907"/>
      </g>
     </g>
     <g id="text_16">
      <!-- 200000 -->
      <g transform="translate(127.625 116.179126)scale(0.1 -0.1)">
       <use xlink:href="#DejaVuSans-50"/>
       <use x="63.623047" xlink:href="#DejaVuSans-48"/>
       <use x="127.246094" xlink:href="#DejaVuSans-48"/>
       <use x="190.869141" xlink:href="#DejaVuSans-48"/>
       <use x="254.492188" xlink:href="#DejaVuSans-48"/>
       <use x="318.115234" xlink:href="#DejaVuSans-48"/>
      </g>
     </g>
    </g>
    <g id="text_17">
     <!-- time cost (ms) -->
     <g transform="translate(121.545312 406.005419)rotate(-90)scale(0.1 -0.1)">
      <defs>
       <path d="M 31 75.875 
Q 24.46875 64.65625 21.28125 53.65625 
Q 18.109375 42.671875 18.109375 31.390625 
Q 18.109375 20.125 21.3125 9.0625 
Q 24.515625 -2 31 -13.1875 
L 23.1875 -13.1875 
Q 15.875 -1.703125 12.234375 9.375 
Q 8.59375 20.453125 8.59375 31.390625 
Q 8.59375 42.28125 12.203125 53.3125 
Q 15.828125 64.359375 23.1875 75.875 
z
" id="DejaVuSans-40"/>
       <path d="M 8.015625 75.875 
L 15.828125 75.875 
Q 23.140625 64.359375 26.78125 53.3125 
Q 30.421875 42.28125 30.421875 31.390625 
Q 30.421875 20.453125 26.78125 9.375 
Q 23.140625 -1.703125 15.828125 -13.1875 
L 8.015625 -13.1875 
Q 14.5 -2 17.703125 9.0625 
Q 20.90625 20.125 20.90625 31.390625 
Q 20.90625 42.671875 17.703125 53.65625 
Q 14.5 64.65625 8.015625 75.875 
z
" id="DejaVuSans-41"/>
      </defs>
      <use xlink:href="#DejaVuSans-116"/>
      <use x="39.208984" xlink:href="#DejaVuSans-105"/>
      <use x="66.992188" xlink:href="#DejaVuSans-109"/>
      <use x="164.404297" xlink:href="#DejaVuSans-101"/>
      <use x="225.927734" xlink:href="#DejaVuSans-32"/>
      <use x="257.714844" xlink:href="#DejaVuSans-99"/>
      <use x="312.695312" xlink:href="#DejaVuSans-111"/>
      <use x="373.876953" xlink:href="#DejaVuSans-115"/>
      <use x="425.976562" xlink:href="#DejaVuSans-116"/>
      <use x="465.185547" xlink:href="#DejaVuSans-32"/>
      <use x="496.972656" xlink:href="#DejaVuSans-40"/>
      <use x="535.986328" xlink:href="#DejaVuSans-109"/>
      <use x="633.398438" xlink:href="#DejaVuSans-115"/>
      <use x="685.498047" xlink:href="#DejaVuSans-41"/>
     </g>
    </g>
   </g>
   <g id="line2d_16">
    <defs>
     <path d="M 0 -3 
L -0.673542 -0.927051 
L -2.85317 -0.927051 
L -1.089814 0.354102 
L -1.763356 2.427051 
L -0 1.145898 
L 1.763356 2.427051 
L 1.089814 0.354102 
L 2.85317 -0.927051 
L 0.673542 -0.927051 
z
" id="m0522704e4f" style="stroke:#0000ff;stroke-linejoin:bevel;"/>
    </defs>
    <g clip-path="url(#p9f90a94396)">
     <use style="fill:#0000ff;stroke:#0000ff;stroke-linejoin:bevel;" x="221.498182" xlink:href="#m0522704e4f" y="626.0652"/>
     <use style="fill:#0000ff;stroke:#0000ff;stroke-linejoin:bevel;" x="231.336198" xlink:href="#m0522704e4f" y="626.038321"/>
     <use style="fill:#0000ff;stroke:#0000ff;stroke-linejoin:bevel;" x="241.174215" xlink:href="#m0522704e4f" y="625.989471"/>
     <use style="fill:#0000ff;stroke:#0000ff;stroke-linejoin:bevel;" x="251.012231" xlink:href="#m0522704e4f" y="625.953955"/>
     <use style="fill:#0000ff;stroke:#0000ff;stroke-linejoin:bevel;" x="260.850248" xlink:href="#m0522704e4f" y="625.93825"/>
     <use style="fill:#0000ff;stroke:#0000ff;stroke-linejoin:bevel;" x="270.688264" xlink:href="#m0522704e4f" y="625.941235"/>
     <use style="fill:#0000ff;stroke:#0000ff;stroke-linejoin:bevel;" x="280.526281" xlink:href="#m0522704e4f" y="625.770429"/>
     <use style="fill:#0000ff;stroke:#0000ff;stroke-linejoin:bevel;" x="290.364298" xlink:href="#m0522704e4f" y="625.653034"/>
     <use style="fill:#0000ff;stroke:#0000ff;stroke-linejoin:bevel;" x="300.202314" xlink:href="#m0522704e4f" y="625.53055"/>
     <use style="fill:#0000ff;stroke:#0000ff;stroke-linejoin:bevel;" x="310.040331" xlink:href="#m0522704e4f" y="625.513025"/>
     <use style="fill:#0000ff;stroke:#0000ff;stroke-linejoin:bevel;" x="319.878347" xlink:href="#m0522704e4f" y="625.670767"/>
     <use style="fill:#0000ff;stroke:#0000ff;stroke-linejoin:bevel;" x="329.716364" xlink:href="#m0522704e4f" y="625.318141"/>
     <use style="fill:#0000ff;stroke:#0000ff;stroke-linejoin:bevel;" x="339.55438" xlink:href="#m0522704e4f" y="624.962757"/>
     <use style="fill:#0000ff;stroke:#0000ff;stroke-linejoin:bevel;" x="349.392397" xlink:href="#m0522704e4f" y="625.171773"/>
     <use style="fill:#0000ff;stroke:#0000ff;stroke-linejoin:bevel;" x="359.230413" xlink:href="#m0522704e4f" y="625.163672"/>
     <use style="fill:#0000ff;stroke:#0000ff;stroke-linejoin:bevel;" x="369.06843" xlink:href="#m0522704e4f" y="624.903253"/>
     <use style="fill:#0000ff;stroke:#0000ff;stroke-linejoin:bevel;" x="378.906446" xlink:href="#m0522704e4f" y="624.327462"/>
     <use style="fill:#0000ff;stroke:#0000ff;stroke-linejoin:bevel;" x="388.744463" xlink:href="#m0522704e4f" y="625.060481"/>
     <use style="fill:#0000ff;stroke:#0000ff;stroke-linejoin:bevel;" x="398.582479" xlink:href="#m0522704e4f" y="625.30469"/>
     <use style="fill:#0000ff;stroke:#0000ff;stroke-linejoin:bevel;" x="408.420496" xlink:href="#m0522704e4f" y="624.362807"/>
     <use style="fill:#0000ff;stroke:#0000ff;stroke-linejoin:bevel;" x="418.258512" xlink:href="#m0522704e4f" y="624.838096"/>
     <use style="fill:#0000ff;stroke:#0000ff;stroke-linejoin:bevel;" x="428.096529" xlink:href="#m0522704e4f" y="624.290568"/>
     <use style="fill:#0000ff;stroke:#0000ff;stroke-linejoin:bevel;" x="437.934545" xlink:href="#m0522704e4f" y="624.226684"/>
     <use style="fill:#0000ff;stroke:#0000ff;stroke-linejoin:bevel;" x="447.772562" xlink:href="#m0522704e4f" y="624.648662"/>
     <use style="fill:#0000ff;stroke:#0000ff;stroke-linejoin:bevel;" x="457.610579" xlink:href="#m0522704e4f" y="624.436124"/>
     <use style="fill:#0000ff;stroke:#0000ff;stroke-linejoin:bevel;" x="467.448595" xlink:href="#m0522704e4f" y="624.391697"/>
     <use style="fill:#0000ff;stroke:#0000ff;stroke-linejoin:bevel;" x="477.286612" xlink:href="#m0522704e4f" y="624.545234"/>
     <use style="fill:#0000ff;stroke:#0000ff;stroke-linejoin:bevel;" x="487.124628" xlink:href="#m0522704e4f" y="624.397245"/>
     <use style="fill:#0000ff;stroke:#0000ff;stroke-linejoin:bevel;" x="496.962645" xlink:href="#m0522704e4f" y="623.759897"/>
     <use style="fill:#0000ff;stroke:#0000ff;stroke-linejoin:bevel;" x="506.800661" xlink:href="#m0522704e4f" y="624.389378"/>
     <use style="fill:#0000ff;stroke:#0000ff;stroke-linejoin:bevel;" x="516.638678" xlink:href="#m0522704e4f" y="623.882319"/>
     <use style="fill:#0000ff;stroke:#0000ff;stroke-linejoin:bevel;" x="526.476694" xlink:href="#m0522704e4f" y="623.399911"/>
     <use style="fill:#0000ff;stroke:#0000ff;stroke-linejoin:bevel;" x="536.314711" xlink:href="#m0522704e4f" y="623.626983"/>
     <use style="fill:#0000ff;stroke:#0000ff;stroke-linejoin:bevel;" x="546.152727" xlink:href="#m0522704e4f" y="623.555045"/>
     <use style="fill:#0000ff;stroke:#0000ff;stroke-linejoin:bevel;" x="555.990744" xlink:href="#m0522704e4f" y="623.430116"/>
     <use style="fill:#0000ff;stroke:#0000ff;stroke-linejoin:bevel;" x="565.82876" xlink:href="#m0522704e4f" y="622.11659"/>
     <use style="fill:#0000ff;stroke:#0000ff;stroke-linejoin:bevel;" x="575.666777" xlink:href="#m0522704e4f" y="623.349055"/>
     <use style="fill:#0000ff;stroke:#0000ff;stroke-linejoin:bevel;" x="585.504793" xlink:href="#m0522704e4f" y="623.197925"/>
     <use style="fill:#0000ff;stroke:#0000ff;stroke-linejoin:bevel;" x="595.34281" xlink:href="#m0522704e4f" y="623.297094"/>
     <use style="fill:#0000ff;stroke:#0000ff;stroke-linejoin:bevel;" x="605.180826" xlink:href="#m0522704e4f" y="623.021341"/>
     <use style="fill:#0000ff;stroke:#0000ff;stroke-linejoin:bevel;" x="615.018843" xlink:href="#m0522704e4f" y="622.259552"/>
     <use style="fill:#0000ff;stroke:#0000ff;stroke-linejoin:bevel;" x="624.85686" xlink:href="#m0522704e4f" y="622.223388"/>
     <use style="fill:#0000ff;stroke:#0000ff;stroke-linejoin:bevel;" x="634.694876" xlink:href="#m0522704e4f" y="622.544629"/>
     <use style="fill:#0000ff;stroke:#0000ff;stroke-linejoin:bevel;" x="644.532893" xlink:href="#m0522704e4f" y="622.277429"/>
     <use style="fill:#0000ff;stroke:#0000ff;stroke-linejoin:bevel;" x="654.370909" xlink:href="#m0522704e4f" y="622.000135"/>
     <use style="fill:#0000ff;stroke:#0000ff;stroke-linejoin:bevel;" x="664.208926" xlink:href="#m0522704e4f" y="620.542337"/>
     <use style="fill:#0000ff;stroke:#0000ff;stroke-linejoin:bevel;" x="674.046942" xlink:href="#m0522704e4f" y="621.857121"/>
     <use style="fill:#0000ff;stroke:#0000ff;stroke-linejoin:bevel;" x="683.884959" xlink:href="#m0522704e4f" y="621.916017"/>
     <use style="fill:#0000ff;stroke:#0000ff;stroke-linejoin:bevel;" x="693.722975" xlink:href="#m0522704e4f" y="622.792257"/>
     <use style="fill:#0000ff;stroke:#0000ff;stroke-linejoin:bevel;" x="703.560992" xlink:href="#m0522704e4f" y="621.66487"/>
     <use style="fill:#0000ff;stroke:#0000ff;stroke-linejoin:bevel;" x="713.399008" xlink:href="#m0522704e4f" y="620.977208"/>
     <use style="fill:#0000ff;stroke:#0000ff;stroke-linejoin:bevel;" x="723.237025" xlink:href="#m0522704e4f" y="621.480247"/>
     <use style="fill:#0000ff;stroke:#0000ff;stroke-linejoin:bevel;" x="733.075041" xlink:href="#m0522704e4f" y="622.21707"/>
     <use style="fill:#0000ff;stroke:#0000ff;stroke-linejoin:bevel;" x="742.913058" xlink:href="#m0522704e4f" y="621.984313"/>
     <use style="fill:#0000ff;stroke:#0000ff;stroke-linejoin:bevel;" x="752.751074" xlink:href="#m0522704e4f" y="621.114905"/>
     <use style="fill:#0000ff;stroke:#0000ff;stroke-linejoin:bevel;" x="762.589091" xlink:href="#m0522704e4f" y="620.485265"/>
     <use style="fill:#0000ff;stroke:#0000ff;stroke-linejoin:bevel;" x="772.427107" xlink:href="#m0522704e4f" y="619.269162"/>
     <use style="fill:#0000ff;stroke:#0000ff;stroke-linejoin:bevel;" x="782.265124" xlink:href="#m0522704e4f" y="620.98815"/>
     <use style="fill:#0000ff;stroke:#0000ff;stroke-linejoin:bevel;" x="792.10314" xlink:href="#m0522704e4f" y="620.626763"/>
     <use style="fill:#0000ff;stroke:#0000ff;stroke-linejoin:bevel;" x="801.941157" xlink:href="#m0522704e4f" y="621.306257"/>
     <use style="fill:#0000ff;stroke:#0000ff;stroke-linejoin:bevel;" x="811.779174" xlink:href="#m0522704e4f" y="619.871114"/>
     <use style="fill:#0000ff;stroke:#0000ff;stroke-linejoin:bevel;" x="821.61719" xlink:href="#m0522704e4f" y="620.196773"/>
     <use style="fill:#0000ff;stroke:#0000ff;stroke-linejoin:bevel;" x="831.455207" xlink:href="#m0522704e4f" y="621.750272"/>
     <use style="fill:#0000ff;stroke:#0000ff;stroke-linejoin:bevel;" x="841.293223" xlink:href="#m0522704e4f" y="619.717595"/>
     <use style="fill:#0000ff;stroke:#0000ff;stroke-linejoin:bevel;" x="851.13124" xlink:href="#m0522704e4f" y="620.5053"/>
     <use style="fill:#0000ff;stroke:#0000ff;stroke-linejoin:bevel;" x="860.969256" xlink:href="#m0522704e4f" y="619.819795"/>
     <use style="fill:#0000ff;stroke:#0000ff;stroke-linejoin:bevel;" x="870.807273" xlink:href="#m0522704e4f" y="618.60061"/>
     <use style="fill:#0000ff;stroke:#0000ff;stroke-linejoin:bevel;" x="880.645289" xlink:href="#m0522704e4f" y="618.052674"/>
     <use style="fill:#0000ff;stroke:#0000ff;stroke-linejoin:bevel;" x="890.483306" xlink:href="#m0522704e4f" y="620.950624"/>
     <use style="fill:#0000ff;stroke:#0000ff;stroke-linejoin:bevel;" x="900.321322" xlink:href="#m0522704e4f" y="620.820376"/>
     <use style="fill:#0000ff;stroke:#0000ff;stroke-linejoin:bevel;" x="910.159339" xlink:href="#m0522704e4f" y="620.759554"/>
     <use style="fill:#0000ff;stroke:#0000ff;stroke-linejoin:bevel;" x="919.997355" xlink:href="#m0522704e4f" y="619.314214"/>
     <use style="fill:#0000ff;stroke:#0000ff;stroke-linejoin:bevel;" x="929.835372" xlink:href="#m0522704e4f" y="617.535303"/>
     <use style="fill:#0000ff;stroke:#0000ff;stroke-linejoin:bevel;" x="939.673388" xlink:href="#m0522704e4f" y="619.266311"/>
     <use style="fill:#0000ff;stroke:#0000ff;stroke-linejoin:bevel;" x="949.511405" xlink:href="#m0522704e4f" y="620.248399"/>
     <use style="fill:#0000ff;stroke:#0000ff;stroke-linejoin:bevel;" x="959.349421" xlink:href="#m0522704e4f" y="617.969738"/>
     <use style="fill:#0000ff;stroke:#0000ff;stroke-linejoin:bevel;" x="969.187438" xlink:href="#m0522704e4f" y="618.988709"/>
     <use style="fill:#0000ff;stroke:#0000ff;stroke-linejoin:bevel;" x="979.025455" xlink:href="#m0522704e4f" y="618.776526"/>
     <use style="fill:#0000ff;stroke:#0000ff;stroke-linejoin:bevel;" x="988.863471" xlink:href="#m0522704e4f" y="616.816665"/>
     <use style="fill:#0000ff;stroke:#0000ff;stroke-linejoin:bevel;" x="998.701488" xlink:href="#m0522704e4f" y="615.460939"/>
     <use style="fill:#0000ff;stroke:#0000ff;stroke-linejoin:bevel;" x="1008.539504" xlink:href="#m0522704e4f" y="618.308008"/>
     <use style="fill:#0000ff;stroke:#0000ff;stroke-linejoin:bevel;" x="1018.377521" xlink:href="#m0522704e4f" y="618.274694"/>
     <use style="fill:#0000ff;stroke:#0000ff;stroke-linejoin:bevel;" x="1028.215537" xlink:href="#m0522704e4f" y="617.477949"/>
     <use style="fill:#0000ff;stroke:#0000ff;stroke-linejoin:bevel;" x="1038.053554" xlink:href="#m0522704e4f" y="617.665885"/>
     <use style="fill:#0000ff;stroke:#0000ff;stroke-linejoin:bevel;" x="1047.89157" xlink:href="#m0522704e4f" y="618.895986"/>
     <use style="fill:#0000ff;stroke:#0000ff;stroke-linejoin:bevel;" x="1057.729587" xlink:href="#m0522704e4f" y="617.790406"/>
     <use style="fill:#0000ff;stroke:#0000ff;stroke-linejoin:bevel;" x="1067.567603" xlink:href="#m0522704e4f" y="619.103931"/>
     <use style="fill:#0000ff;stroke:#0000ff;stroke-linejoin:bevel;" x="1077.40562" xlink:href="#m0522704e4f" y="616.968104"/>
     <use style="fill:#0000ff;stroke:#0000ff;stroke-linejoin:bevel;" x="1087.243636" xlink:href="#m0522704e4f" y="614.371797"/>
     <use style="fill:#0000ff;stroke:#0000ff;stroke-linejoin:bevel;" x="1097.081653" xlink:href="#m0522704e4f" y="616.593695"/>
     <use style="fill:#0000ff;stroke:#0000ff;stroke-linejoin:bevel;" x="1106.919669" xlink:href="#m0522704e4f" y="616.742616"/>
     <use style="fill:#0000ff;stroke:#0000ff;stroke-linejoin:bevel;" x="1116.757686" xlink:href="#m0522704e4f" y="617.328257"/>
     <use style="fill:#0000ff;stroke:#0000ff;stroke-linejoin:bevel;" x="1126.595702" xlink:href="#m0522704e4f" y="617.60961"/>
     <use style="fill:#0000ff;stroke:#0000ff;stroke-linejoin:bevel;" x="1136.433719" xlink:href="#m0522704e4f" y="616.086778"/>
     <use style="fill:#0000ff;stroke:#0000ff;stroke-linejoin:bevel;" x="1146.271736" xlink:href="#m0522704e4f" y="616.309209"/>
     <use style="fill:#0000ff;stroke:#0000ff;stroke-linejoin:bevel;" x="1156.109752" xlink:href="#m0522704e4f" y="615.628456"/>
     <use style="fill:#0000ff;stroke:#0000ff;stroke-linejoin:bevel;" x="1165.947769" xlink:href="#m0522704e4f" y="615.858054"/>
     <use style="fill:#0000ff;stroke:#0000ff;stroke-linejoin:bevel;" x="1175.785785" xlink:href="#m0522704e4f" y="616.02123"/>
     <use style="fill:#0000ff;stroke:#0000ff;stroke-linejoin:bevel;" x="1185.623802" xlink:href="#m0522704e4f" y="617.250689"/>
     <use style="fill:#0000ff;stroke:#0000ff;stroke-linejoin:bevel;" x="1195.461818" xlink:href="#m0522704e4f" y="616.721965"/>
    </g>
   </g>
   <g id="line2d_17">
    <defs>
     <path d="M -3 0 
L 3 0 
M 0 3 
L 0 -3 
" id="m9cfb29a047" style="stroke:#ff0000;"/>
    </defs>
    <g clip-path="url(#p9f90a94396)">
     <use style="fill:#ff0000;stroke:#ff0000;" x="221.498182" xlink:href="#m9cfb29a047" y="626.00366"/>
     <use style="fill:#ff0000;stroke:#ff0000;" x="231.336198" xlink:href="#m9cfb29a047" y="625.843653"/>
     <use style="fill:#ff0000;stroke:#ff0000;" x="241.174215" xlink:href="#m9cfb29a047" y="625.658587"/>
     <use style="fill:#ff0000;stroke:#ff0000;" x="251.012231" xlink:href="#m9cfb29a047" y="625.285141"/>
     <use style="fill:#ff0000;stroke:#ff0000;" x="260.850248" xlink:href="#m9cfb29a047" y="624.831869"/>
     <use style="fill:#ff0000;stroke:#ff0000;" x="270.688264" xlink:href="#m9cfb29a047" y="624.171046"/>
     <use style="fill:#ff0000;stroke:#ff0000;" x="280.526281" xlink:href="#m9cfb29a047" y="623.580219"/>
     <use style="fill:#ff0000;stroke:#ff0000;" x="290.364298" xlink:href="#m9cfb29a047" y="622.875322"/>
     <use style="fill:#ff0000;stroke:#ff0000;" x="300.202314" xlink:href="#m9cfb29a047" y="621.731548"/>
     <use style="fill:#ff0000;stroke:#ff0000;" x="310.040331" xlink:href="#m9cfb29a047" y="621.076968"/>
     <use style="fill:#ff0000;stroke:#ff0000;" x="319.878347" xlink:href="#m9cfb29a047" y="619.577253"/>
     <use style="fill:#ff0000;stroke:#ff0000;" x="329.716364" xlink:href="#m9cfb29a047" y="619.220926"/>
     <use style="fill:#ff0000;stroke:#ff0000;" x="339.55438" xlink:href="#m9cfb29a047" y="617.260706"/>
     <use style="fill:#ff0000;stroke:#ff0000;" x="349.392397" xlink:href="#m9cfb29a047" y="616.202771"/>
     <use style="fill:#ff0000;stroke:#ff0000;" x="359.230413" xlink:href="#m9cfb29a047" y="614.293201"/>
     <use style="fill:#ff0000;stroke:#ff0000;" x="369.06843" xlink:href="#m9cfb29a047" y="612.83864"/>
     <use style="fill:#ff0000;stroke:#ff0000;" x="378.906446" xlink:href="#m9cfb29a047" y="611.524883"/>
     <use style="fill:#ff0000;stroke:#ff0000;" x="388.744463" xlink:href="#m9cfb29a047" y="609.794568"/>
     <use style="fill:#ff0000;stroke:#ff0000;" x="398.582479" xlink:href="#m9cfb29a047" y="607.782259"/>
     <use style="fill:#ff0000;stroke:#ff0000;" x="408.420496" xlink:href="#m9cfb29a047" y="605.127031"/>
     <use style="fill:#ff0000;stroke:#ff0000;" x="418.258512" xlink:href="#m9cfb29a047" y="603.490466"/>
     <use style="fill:#ff0000;stroke:#ff0000;" x="428.096529" xlink:href="#m9cfb29a047" y="601.075932"/>
     <use style="fill:#ff0000;stroke:#ff0000;" x="437.934545" xlink:href="#m9cfb29a047" y="599.373819"/>
     <use style="fill:#ff0000;stroke:#ff0000;" x="447.772562" xlink:href="#m9cfb29a047" y="596.341203"/>
     <use style="fill:#ff0000;stroke:#ff0000;" x="457.610579" xlink:href="#m9cfb29a047" y="593.902165"/>
     <use style="fill:#ff0000;stroke:#ff0000;" x="467.448595" xlink:href="#m9cfb29a047" y="591.737698"/>
     <use style="fill:#ff0000;stroke:#ff0000;" x="477.286612" xlink:href="#m9cfb29a047" y="589.257565"/>
     <use style="fill:#ff0000;stroke:#ff0000;" x="487.124628" xlink:href="#m9cfb29a047" y="586.393441"/>
     <use style="fill:#ff0000;stroke:#ff0000;" x="496.962645" xlink:href="#m9cfb29a047" y="582.651408"/>
     <use style="fill:#ff0000;stroke:#ff0000;" x="506.800661" xlink:href="#m9cfb29a047" y="580.093449"/>
     <use style="fill:#ff0000;stroke:#ff0000;" x="516.638678" xlink:href="#m9cfb29a047" y="575.900646"/>
     <use style="fill:#ff0000;stroke:#ff0000;" x="526.476694" xlink:href="#m9cfb29a047" y="573.648851"/>
     <use style="fill:#ff0000;stroke:#ff0000;" x="536.314711" xlink:href="#m9cfb29a047" y="569.812041"/>
     <use style="fill:#ff0000;stroke:#ff0000;" x="546.152727" xlink:href="#m9cfb29a047" y="566.015556"/>
     <use style="fill:#ff0000;stroke:#ff0000;" x="555.990744" xlink:href="#m9cfb29a047" y="563.678487"/>
     <use style="fill:#ff0000;stroke:#ff0000;" x="565.82876" xlink:href="#m9cfb29a047" y="559.724554"/>
     <use style="fill:#ff0000;stroke:#ff0000;" x="575.666777" xlink:href="#m9cfb29a047" y="555.445706"/>
     <use style="fill:#ff0000;stroke:#ff0000;" x="585.504793" xlink:href="#m9cfb29a047" y="551.404444"/>
     <use style="fill:#ff0000;stroke:#ff0000;" x="595.34281" xlink:href="#m9cfb29a047" y="548.385698"/>
     <use style="fill:#ff0000;stroke:#ff0000;" x="605.180826" xlink:href="#m9cfb29a047" y="544.274059"/>
     <use style="fill:#ff0000;stroke:#ff0000;" x="615.018843" xlink:href="#m9cfb29a047" y="540.250006"/>
     <use style="fill:#ff0000;stroke:#ff0000;" x="624.85686" xlink:href="#m9cfb29a047" y="535.632632"/>
     <use style="fill:#ff0000;stroke:#ff0000;" x="634.694876" xlink:href="#m9cfb29a047" y="530.890942"/>
     <use style="fill:#ff0000;stroke:#ff0000;" x="644.532893" xlink:href="#m9cfb29a047" y="527.146084"/>
     <use style="fill:#ff0000;stroke:#ff0000;" x="654.370909" xlink:href="#m9cfb29a047" y="521.386502"/>
     <use style="fill:#ff0000;stroke:#ff0000;" x="664.208926" xlink:href="#m9cfb29a047" y="517.061936"/>
     <use style="fill:#ff0000;stroke:#ff0000;" x="674.046942" xlink:href="#m9cfb29a047" y="512.515452"/>
     <use style="fill:#ff0000;stroke:#ff0000;" x="683.884959" xlink:href="#m9cfb29a047" y="506.849106"/>
     <use style="fill:#ff0000;stroke:#ff0000;" x="693.722975" xlink:href="#m9cfb29a047" y="503.624624"/>
     <use style="fill:#ff0000;stroke:#ff0000;" x="703.560992" xlink:href="#m9cfb29a047" y="496.744153"/>
     <use style="fill:#ff0000;stroke:#ff0000;" x="713.399008" xlink:href="#m9cfb29a047" y="492.283713"/>
     <use style="fill:#ff0000;stroke:#ff0000;" x="723.237025" xlink:href="#m9cfb29a047" y="486.455553"/>
     <use style="fill:#ff0000;stroke:#ff0000;" x="733.075041" xlink:href="#m9cfb29a047" y="482.986036"/>
     <use style="fill:#ff0000;stroke:#ff0000;" x="742.913058" xlink:href="#m9cfb29a047" y="475.795549"/>
     <use style="fill:#ff0000;stroke:#ff0000;" x="752.751074" xlink:href="#m9cfb29a047" y="471.91867"/>
     <use style="fill:#ff0000;stroke:#ff0000;" x="762.589091" xlink:href="#m9cfb29a047" y="464.828354"/>
     <use style="fill:#ff0000;stroke:#ff0000;" x="772.427107" xlink:href="#m9cfb29a047" y="458.987864"/>
     <use style="fill:#ff0000;stroke:#ff0000;" x="782.265124" xlink:href="#m9cfb29a047" y="452.228112"/>
     <use style="fill:#ff0000;stroke:#ff0000;" x="792.10314" xlink:href="#m9cfb29a047" y="448.20971"/>
     <use style="fill:#ff0000;stroke:#ff0000;" x="801.941157" xlink:href="#m9cfb29a047" y="439.809464"/>
     <use style="fill:#ff0000;stroke:#ff0000;" x="811.779174" xlink:href="#m9cfb29a047" y="434.255618"/>
     <use style="fill:#ff0000;stroke:#ff0000;" x="821.61719" xlink:href="#m9cfb29a047" y="428.184221"/>
     <use style="fill:#ff0000;stroke:#ff0000;" x="831.455207" xlink:href="#m9cfb29a047" y="422.14827"/>
     <use style="fill:#ff0000;stroke:#ff0000;" x="841.293223" xlink:href="#m9cfb29a047" y="415.289888"/>
     <use style="fill:#ff0000;stroke:#ff0000;" x="851.13124" xlink:href="#m9cfb29a047" y="408.677311"/>
     <use style="fill:#ff0000;stroke:#ff0000;" x="860.969256" xlink:href="#m9cfb29a047" y="402.234767"/>
     <use style="fill:#ff0000;stroke:#ff0000;" x="870.807273" xlink:href="#m9cfb29a047" y="395.372019"/>
     <use style="fill:#ff0000;stroke:#ff0000;" x="880.645289" xlink:href="#m9cfb29a047" y="389.487866"/>
     <use style="fill:#ff0000;stroke:#ff0000;" x="890.483306" xlink:href="#m9cfb29a047" y="380.487363"/>
     <use style="fill:#ff0000;stroke:#ff0000;" x="900.321322" xlink:href="#m9cfb29a047" y="375.301582"/>
     <use style="fill:#ff0000;stroke:#ff0000;" x="910.159339" xlink:href="#m9cfb29a047" y="366.426679"/>
     <use style="fill:#ff0000;stroke:#ff0000;" x="919.997355" xlink:href="#m9cfb29a047" y="358.739188"/>
     <use style="fill:#ff0000;stroke:#ff0000;" x="929.835372" xlink:href="#m9cfb29a047" y="352.978065"/>
     <use style="fill:#ff0000;stroke:#ff0000;" x="939.673388" xlink:href="#m9cfb29a047" y="344.72037"/>
     <use style="fill:#ff0000;stroke:#ff0000;" x="949.511405" xlink:href="#m9cfb29a047" y="336.508908"/>
     <use style="fill:#ff0000;stroke:#ff0000;" x="959.349421" xlink:href="#m9cfb29a047" y="329.044876"/>
     <use style="fill:#ff0000;stroke:#ff0000;" x="969.187438" xlink:href="#m9cfb29a047" y="321.627077"/>
     <use style="fill:#ff0000;stroke:#ff0000;" x="979.025455" xlink:href="#m9cfb29a047" y="313.667327"/>
     <use style="fill:#ff0000;stroke:#ff0000;" x="988.863471" xlink:href="#m9cfb29a047" y="304.615968"/>
     <use style="fill:#ff0000;stroke:#ff0000;" x="998.701488" xlink:href="#m9cfb29a047" y="298.526078"/>
     <use style="fill:#ff0000;stroke:#ff0000;" x="1008.539504" xlink:href="#m9cfb29a047" y="287.543215"/>
     <use style="fill:#ff0000;stroke:#ff0000;" x="1018.377521" xlink:href="#m9cfb29a047" y="281.19134"/>
     <use style="fill:#ff0000;stroke:#ff0000;" x="1028.215537" xlink:href="#m9cfb29a047" y="271.544092"/>
     <use style="fill:#ff0000;stroke:#ff0000;" x="1038.053554" xlink:href="#m9cfb29a047" y="264.485881"/>
     <use style="fill:#ff0000;stroke:#ff0000;" x="1047.89157" xlink:href="#m9cfb29a047" y="254.651133"/>
     <use style="fill:#ff0000;stroke:#ff0000;" x="1057.729587" xlink:href="#m9cfb29a047" y="245.617754"/>
     <use style="fill:#ff0000;stroke:#ff0000;" x="1067.567603" xlink:href="#m9cfb29a047" y="237.385744"/>
     <use style="fill:#ff0000;stroke:#ff0000;" x="1077.40562" xlink:href="#m9cfb29a047" y="230.373766"/>
     <use style="fill:#ff0000;stroke:#ff0000;" x="1087.243636" xlink:href="#m9cfb29a047" y="218.872068"/>
     <use style="fill:#ff0000;stroke:#ff0000;" x="1097.081653" xlink:href="#m9cfb29a047" y="209.558724"/>
     <use style="fill:#ff0000;stroke:#ff0000;" x="1106.919669" xlink:href="#m9cfb29a047" y="200.096407"/>
     <use style="fill:#ff0000;stroke:#ff0000;" x="1116.757686" xlink:href="#m9cfb29a047" y="192.354978"/>
     <use style="fill:#ff0000;stroke:#ff0000;" x="1126.595702" xlink:href="#m9cfb29a047" y="181.295061"/>
     <use style="fill:#ff0000;stroke:#ff0000;" x="1136.433719" xlink:href="#m9cfb29a047" y="174.280514"/>
     <use style="fill:#ff0000;stroke:#ff0000;" x="1146.271736" xlink:href="#m9cfb29a047" y="163.364432"/>
     <use style="fill:#ff0000;stroke:#ff0000;" x="1156.109752" xlink:href="#m9cfb29a047" y="151.341331"/>
     <use style="fill:#ff0000;stroke:#ff0000;" x="1165.947769" xlink:href="#m9cfb29a047" y="142.541684"/>
     <use style="fill:#ff0000;stroke:#ff0000;" x="1175.785785" xlink:href="#m9cfb29a047" y="131.45865"/>
     <use style="fill:#ff0000;stroke:#ff0000;" x="1185.623802" xlink:href="#m9cfb29a047" y="122.016881"/>
     <use style="fill:#ff0000;stroke:#ff0000;" x="1195.461818" xlink:href="#m9cfb29a047" y="113.4972"/>
    </g>
   </g>
   <g id="patch_3">
    <path d="M 172.8 651.6936 
L 172.8 87.8688 
" style="fill:none;stroke:#000000;stroke-linecap:square;stroke-linejoin:miter;stroke-width:0.8;"/>
   </g>
   <g id="patch_4">
    <path d="M 1244.16 651.6936 
L 1244.16 87.8688 
" style="fill:none;stroke:#000000;stroke-linecap:square;stroke-linejoin:miter;stroke-width:0.8;"/>
   </g>
   <g id="patch_5">
    <path d="M 172.8 651.6936 
L 1244.16 651.6936 
" style="fill:none;stroke:#000000;stroke-linecap:square;stroke-linejoin:miter;stroke-width:0.8;"/>
   </g>
   <g id="patch_6">
    <path d="M 172.8 87.8688 
L 1244.16 87.8688 
" style="fill:none;stroke:#000000;stroke-linecap:square;stroke-linejoin:miter;stroke-width:0.8;"/>
   </g>
   <g id="legend_1">
    <g id="patch_7">
     <path d="M 179.8 125.22505 
L 355.06875 125.22505 
Q 357.06875 125.22505 357.06875 123.22505 
L 357.06875 94.8688 
Q 357.06875 92.8688 355.06875 92.8688 
L 179.8 92.8688 
Q 177.8 92.8688 177.8 94.8688 
L 177.8 123.22505 
Q 177.8 125.22505 179.8 125.22505 
z
" style="fill:#ffffff;opacity:0.8;stroke:#cccccc;stroke-linejoin:miter;"/>
    </g>
    <g id="line2d_18"/>
    <g id="line2d_19">
     <g>
      <use style="fill:#0000ff;stroke:#0000ff;stroke-linejoin:bevel;" x="191.8" xlink:href="#m0522704e4f" y="100.967238"/>
     </g>
    </g>
    <g id="text_18">
     <!-- Alpine container in archlinux -->
     <g transform="translate(209.8 104.467238)scale(0.1 -0.1)">
      <defs>
       <path d="M 34.1875 63.1875 
L 20.796875 26.90625 
L 47.609375 26.90625 
z
M 28.609375 72.90625 
L 39.796875 72.90625 
L 67.578125 0 
L 57.328125 0 
L 50.6875 18.703125 
L 17.828125 18.703125 
L 11.1875 0 
L 0.78125 0 
z
" id="DejaVuSans-65"/>
       <path d="M 9.421875 75.984375 
L 18.40625 75.984375 
L 18.40625 0 
L 9.421875 0 
z
" id="DejaVuSans-108"/>
       <path d="M 34.28125 27.484375 
Q 23.390625 27.484375 19.1875 25 
Q 14.984375 22.515625 14.984375 16.5 
Q 14.984375 11.71875 18.140625 8.90625 
Q 21.296875 6.109375 26.703125 6.109375 
Q 34.1875 6.109375 38.703125 11.40625 
Q 43.21875 16.703125 43.21875 25.484375 
L 43.21875 27.484375 
z
M 52.203125 31.203125 
L 52.203125 0 
L 43.21875 0 
L 43.21875 8.296875 
Q 40.140625 3.328125 35.546875 0.953125 
Q 30.953125 -1.421875 24.3125 -1.421875 
Q 15.921875 -1.421875 10.953125 3.296875 
Q 6 8.015625 6 15.921875 
Q 6 25.140625 12.171875 29.828125 
Q 18.359375 34.515625 30.609375 34.515625 
L 43.21875 34.515625 
L 43.21875 35.40625 
Q 43.21875 41.609375 39.140625 45 
Q 35.0625 48.390625 27.6875 48.390625 
Q 23 48.390625 18.546875 47.265625 
Q 14.109375 46.140625 10.015625 43.890625 
L 10.015625 52.203125 
Q 14.9375 54.109375 19.578125 55.046875 
Q 24.21875 56 28.609375 56 
Q 40.484375 56 46.34375 49.84375 
Q 52.203125 43.703125 52.203125 31.203125 
z
" id="DejaVuSans-97"/>
       <path d="M 54.890625 54.6875 
L 35.109375 28.078125 
L 55.90625 0 
L 45.3125 0 
L 29.390625 21.484375 
L 13.484375 0 
L 2.875 0 
L 24.125 28.609375 
L 4.6875 54.6875 
L 15.28125 54.6875 
L 29.78125 35.203125 
L 44.28125 54.6875 
z
" id="DejaVuSans-120"/>
      </defs>
      <use xlink:href="#DejaVuSans-65"/>
      <use x="68.408203" xlink:href="#DejaVuSans-108"/>
      <use x="96.191406" xlink:href="#DejaVuSans-112"/>
      <use x="159.667969" xlink:href="#DejaVuSans-105"/>
      <use x="187.451172" xlink:href="#DejaVuSans-110"/>
      <use x="250.830078" xlink:href="#DejaVuSans-101"/>
      <use x="312.353516" xlink:href="#DejaVuSans-32"/>
      <use x="344.140625" xlink:href="#DejaVuSans-99"/>
      <use x="399.121094" xlink:href="#DejaVuSans-111"/>
      <use x="460.302734" xlink:href="#DejaVuSans-110"/>
      <use x="523.681641" xlink:href="#DejaVuSans-116"/>
      <use x="562.890625" xlink:href="#DejaVuSans-97"/>
      <use x="624.169922" xlink:href="#DejaVuSans-105"/>
      <use x="651.953125" xlink:href="#DejaVuSans-110"/>
      <use x="715.332031" xlink:href="#DejaVuSans-101"/>
      <use x="776.855469" xlink:href="#DejaVuSans-114"/>
      <use x="817.96875" xlink:href="#DejaVuSans-32"/>
      <use x="849.755859" xlink:href="#DejaVuSans-105"/>
      <use x="877.539062" xlink:href="#DejaVuSans-110"/>
      <use x="940.917969" xlink:href="#DejaVuSans-32"/>
      <use x="972.705078" xlink:href="#DejaVuSans-97"/>
      <use x="1033.984375" xlink:href="#DejaVuSans-114"/>
      <use x="1072.847656" xlink:href="#DejaVuSans-99"/>
      <use x="1127.828125" xlink:href="#DejaVuSans-104"/>
      <use x="1191.207031" xlink:href="#DejaVuSans-108"/>
      <use x="1218.990234" xlink:href="#DejaVuSans-105"/>
      <use x="1246.773438" xlink:href="#DejaVuSans-110"/>
      <use x="1310.152344" xlink:href="#DejaVuSans-117"/>
      <use x="1373.53125" xlink:href="#DejaVuSans-120"/>
     </g>
    </g>
    <g id="line2d_20"/>
    <g id="line2d_21">
     <g>
      <use style="fill:#ff0000;stroke:#ff0000;" x="191.8" xlink:href="#m9cfb29a047" y="115.645363"/>
     </g>
    </g>
    <g id="text_19">
     <!-- Ubuntu 20.04 in QEMU/KVM -->
     <g transform="translate(209.8 119.145363)scale(0.1 -0.1)">
      <defs>
       <path d="M 8.6875 72.90625 
L 18.609375 72.90625 
L 18.609375 28.609375 
Q 18.609375 16.890625 22.84375 11.734375 
Q 27.09375 6.59375 36.625 6.59375 
Q 46.09375 6.59375 50.34375 11.734375 
Q 54.59375 16.890625 54.59375 28.609375 
L 54.59375 72.90625 
L 64.5 72.90625 
L 64.5 27.390625 
Q 64.5 13.140625 57.4375 5.859375 
Q 50.390625 -1.421875 36.625 -1.421875 
Q 22.796875 -1.421875 15.734375 5.859375 
Q 8.6875 13.140625 8.6875 27.390625 
z
" id="DejaVuSans-85"/>
       <path d="M 10.6875 12.40625 
L 21 12.40625 
L 21 0 
L 10.6875 0 
z
" id="DejaVuSans-46"/>
       <path d="M 39.40625 66.21875 
Q 28.65625 66.21875 22.328125 58.203125 
Q 16.015625 50.203125 16.015625 36.375 
Q 16.015625 22.609375 22.328125 14.59375 
Q 28.65625 6.59375 39.40625 6.59375 
Q 50.140625 6.59375 56.421875 14.59375 
Q 62.703125 22.609375 62.703125 36.375 
Q 62.703125 50.203125 56.421875 58.203125 
Q 50.140625 66.21875 39.40625 66.21875 
z
M 53.21875 1.3125 
L 66.21875 -12.890625 
L 54.296875 -12.890625 
L 43.5 -1.21875 
Q 41.890625 -1.3125 41.03125 -1.359375 
Q 40.1875 -1.421875 39.40625 -1.421875 
Q 24.03125 -1.421875 14.8125 8.859375 
Q 5.609375 19.140625 5.609375 36.375 
Q 5.609375 53.65625 14.8125 63.9375 
Q 24.03125 74.21875 39.40625 74.21875 
Q 54.734375 74.21875 63.90625 63.9375 
Q 73.09375 53.65625 73.09375 36.375 
Q 73.09375 23.6875 67.984375 14.640625 
Q 62.890625 5.609375 53.21875 1.3125 
z
" id="DejaVuSans-81"/>
       <path d="M 9.8125 72.90625 
L 55.90625 72.90625 
L 55.90625 64.59375 
L 19.671875 64.59375 
L 19.671875 43.015625 
L 54.390625 43.015625 
L 54.390625 34.71875 
L 19.671875 34.71875 
L 19.671875 8.296875 
L 56.78125 8.296875 
L 56.78125 0 
L 9.8125 0 
z
" id="DejaVuSans-69"/>
       <path d="M 9.8125 72.90625 
L 24.515625 72.90625 
L 43.109375 23.296875 
L 61.8125 72.90625 
L 76.515625 72.90625 
L 76.515625 0 
L 66.890625 0 
L 66.890625 64.015625 
L 48.09375 14.015625 
L 38.1875 14.015625 
L 19.390625 64.015625 
L 19.390625 0 
L 9.8125 0 
z
" id="DejaVuSans-77"/>
       <path d="M 25.390625 72.90625 
L 33.6875 72.90625 
L 8.296875 -9.28125 
L 0 -9.28125 
z
" id="DejaVuSans-47"/>
       <path d="M 9.8125 72.90625 
L 19.671875 72.90625 
L 19.671875 42.09375 
L 52.390625 72.90625 
L 65.09375 72.90625 
L 28.90625 38.921875 
L 67.671875 0 
L 54.6875 0 
L 19.671875 35.109375 
L 19.671875 0 
L 9.8125 0 
z
" id="DejaVuSans-75"/>
       <path d="M 28.609375 0 
L 0.78125 72.90625 
L 11.078125 72.90625 
L 34.1875 11.53125 
L 57.328125 72.90625 
L 67.578125 72.90625 
L 39.796875 0 
z
" id="DejaVuSans-86"/>
      </defs>
      <use xlink:href="#DejaVuSans-85"/>
      <use x="73.193359" xlink:href="#DejaVuSans-98"/>
      <use x="136.669922" xlink:href="#DejaVuSans-117"/>
      <use x="200.048828" xlink:href="#DejaVuSans-110"/>
      <use x="263.427734" xlink:href="#DejaVuSans-116"/>
      <use x="302.636719" xlink:href="#DejaVuSans-117"/>
      <use x="366.015625" xlink:href="#DejaVuSans-32"/>
      <use x="397.802734" xlink:href="#DejaVuSans-50"/>
      <use x="461.425781" xlink:href="#DejaVuSans-48"/>
      <use x="525.048828" xlink:href="#DejaVuSans-46"/>
      <use x="556.835938" xlink:href="#DejaVuSans-48"/>
      <use x="620.458984" xlink:href="#DejaVuSans-52"/>
      <use x="684.082031" xlink:href="#DejaVuSans-32"/>
      <use x="715.869141" xlink:href="#DejaVuSans-105"/>
      <use x="743.652344" xlink:href="#DejaVuSans-110"/>
      <use x="807.03125" xlink:href="#DejaVuSans-32"/>
      <use x="838.818359" xlink:href="#DejaVuSans-81"/>
      <use x="917.529297" xlink:href="#DejaVuSans-69"/>
      <use x="980.712891" xlink:href="#DejaVuSans-77"/>
      <use x="1066.992188" xlink:href="#DejaVuSans-85"/>
      <use x="1140.185547" xlink:href="#DejaVuSans-47"/>
      <use x="1173.876953" xlink:href="#DejaVuSans-75"/>
      <use x="1239.453125" xlink:href="#DejaVuSans-86"/>
      <use x="1307.861328" xlink:href="#DejaVuSans-77"/>
     </g>
    </g>
   </g>
  </g>
 </g>
 <defs>
  <clipPath id="p9f90a94396">
   <rect height="563.8248" width="1071.36" x="172.8" y="87.8688"/>
  </clipPath>
 </defs>
</svg>
